<svg xmlns="http://www.w3.org/2000/svg" viewBox="0 0 80 80"><g transform="translate(5 65)" fill="#1e3a8a"><path d="M5.20-5.20L5.20-0.10L5.10 0L5 0Q4.10 0 3.35-0.25Q2.60-0.50 2-0.95Q1.40-1.40 0.95-2Q0.50-2.60 0.25-3.35Q0-4.10 0-5L0-5.10L0.10-5.20L5.20-5.20Q5.20-5.20 5.20-5.20Q5.20-5.20 5.20-5.20Q5.20-5.20 5.20-5.20Q5.20-5.20 5.20-5.20Q5.20-5.20 5.20-5.20M4.90 0L4.80-0.10L4.80-5.20Q4.80-5.20 4.80-5.20Q4.80-5.20 4.80-5.20Q4.80-5.20 4.80-5.20Q4.80-5.20 4.80-5.20Q4.80-5.20 4.80-5.20L9.90-5.20L10-5.10L10-5Q10-4.10 9.75-3.35Q9.50-2.60 9.05-2Q8.60-1.40 8-0.95Q7.40-0.50 6.65-0.25Q5.90 0 5 0L4.90 0M4.80-4.80L4.80-9.90L4.90-10L5-10Q5.90-10 6.65-9.75Q7.40-9.50 8-9.05Q8.60-8.60 9.05-8Q9.50-7.40 9.75-6.65Q10-5.90 10-5L10-4.90L9.90-4.80L4.80-4.80Q4.80-4.80 4.80-4.80Q4.80-4.80 4.80-4.80Q4.80-4.80 4.80-4.80Q4.80-4.80 4.80-4.80Q4.80-4.80 4.80-4.80M5.10-10L5.20-9.90L5.20-4.80Q5.20-4.80 5.20-4.80Q5.20-4.80 5.20-4.80Q5.20-4.80 5.20-4.80Q5.20-4.80 5.20-4.80Q5.20-4.80 5.20-4.80L0.10-4.80L0-4.90L0-5Q0-5.90 0.25-6.65Q0.50-7.40 0.95-8Q1.40-8.60 2-9.05Q2.60-9.50 3.35-9.75Q4.10-10 5-10L5.10-10M5.20-15.20L5.20-10.10L5.10-10L5-10Q4.10-10 3.35-10.25Q2.60-10.50 2-10.95Q1.40-11.40 0.95-12Q0.50-12.60 0.25-13.35Q0-14.10 0-15L0-15.10L0.10-15.20L5.20-15.20Q5.20-15.20 5.20-15.20Q5.20-15.20 5.20-15.20Q5.20-15.20 5.20-15.20Q5.20-15.20 5.20-15.20Q5.20-15.20 5.20-15.20M4.90-10L4.80-10.10L4.80-15.20Q4.80-15.20 4.80-15.20Q4.80-15.20 4.80-15.20Q4.80-15.20 4.80-15.20Q4.80-15.20 4.80-15.20Q4.80-15.20 4.80-15.20L9.90-15.20L10-15.10L10-15Q10-14.10 9.75-13.35Q9.50-12.60 9.05-12Q8.60-11.40 8-10.95Q7.40-10.50 6.65-10.25Q5.90-10 5-10L4.90-10M4.80-14.80L4.80-19.90L4.90-20L5-20Q5.90-20 6.65-19.75Q7.40-19.50 8-19.05Q8.60-18.60 9.05-18Q9.50-17.40 9.75-16.65Q10-15.90 10-15L10-14.90L9.90-14.80L4.80-14.80Q4.80-14.80 4.80-14.80Q4.80-14.80 4.80-14.80Q4.80-14.80 4.80-14.80Q4.80-14.80 4.80-14.80Q4.80-14.80 4.80-14.80M5.10-20L5.20-19.90L5.20-14.80Q5.20-14.80 5.20-14.80Q5.20-14.80 5.20-14.80Q5.20-14.80 5.20-14.80Q5.20-14.80 5.20-14.80Q5.20-14.80 5.20-14.80L0.10-14.80L0-14.90L0-15Q0-15.90 0.25-16.65Q0.50-17.40 0.95-18Q1.40-18.60 2-19.05Q2.60-19.50 3.35-19.75Q4.10-20 5-20L5.10-20M5.20-25.20L5.20-20.10L5.10-20L5-20Q4.10-20 3.35-20.25Q2.60-20.50 2-20.95Q1.40-21.40 0.95-22Q0.50-22.60 0.25-23.35Q0-24.10 0-25L0-25.10L0.10-25.20L5.20-25.20Q5.20-25.20 5.20-25.20Q5.20-25.20 5.20-25.20Q5.20-25.20 5.20-25.20Q5.20-25.20 5.20-25.20Q5.20-25.20 5.20-25.20M4.90-20L4.80-20.10L4.80-25.20Q4.80-25.20 4.80-25.20Q4.80-25.20 4.80-25.20Q4.80-25.20 4.80-25.20Q4.80-25.20 4.80-25.20Q4.80-25.20 4.80-25.20L9.90-25.20L10-25.10L10-25Q10-24.10 9.75-23.35Q9.50-22.60 9.05-22Q8.60-21.40 8-20.95Q7.40-20.50 6.65-20.25Q5.90-20 5-20L4.90-20M4.80-24.80L4.80-29.90L4.90-30L5-30Q5.90-30 6.65-29.75Q7.40-29.50 8-29.05Q8.60-28.60 9.05-28Q9.50-27.40 9.75-26.65Q10-25.90 10-25L10-24.90L9.90-24.80L4.80-24.80Q4.80-24.80 4.80-24.80Q4.80-24.80 4.80-24.80Q4.80-24.80 4.80-24.80Q4.80-24.80 4.80-24.80M5.10-30L5.20-29.90L5.20-24.80Q5.20-24.80 5.20-24.80Q5.20-24.80 5.20-24.80Q5.20-24.80 5.20-24.80Q5.20-24.80 5.20-24.80Q5.20-24.80 5.20-24.80L0.10-24.80L0-24.90L0-25Q0-25.90 0.25-26.65Q0.50-27.40 0.95-28Q1.40-28.60 2-29.05Q2.60-29.50 3.35-29.75Q4.10-30 5-30L5.10-30M5.20-35.20L5.20-30.10L5.10-30L5-30Q4.10-30 3.35-30.25Q2.60-30.50 2-30.95Q1.40-31.40 0.95-32Q0.50-32.60 0.25-33.35Q0-34.10 0-35L0-35.10L0.10-35.20L5.20-35.20Q5.20-35.20 5.20-35.20Q5.20-35.20 5.20-35.20Q5.20-35.20 5.20-35.20Q5.20-35.20 5.20-35.20Q5.20-35.20 5.20-35.20M4.90-30L4.80-30.10L4.80-35.20Q4.80-35.20 4.80-35.20Q4.80-35.20 4.80-35.20Q4.80-35.20 4.80-35.20Q4.80-35.20 4.80-35.20Q4.80-35.20 4.80-35.20L9.90-35.20L10-35.10L10-35Q10-34.10 9.75-33.35Q9.50-32.60 9.05-32Q8.60-31.40 8-30.95Q7.40-30.50 6.65-30.25Q5.90-30 5-30L4.90-30M4.80-34.80L4.80-39.90L4.90-40L5-40Q5.90-40 6.65-39.75Q7.40-39.50 8-39.05Q8.60-38.60 9.05-38Q9.50-37.40 9.75-36.65Q10-35.90 10-35L10-34.90L9.90-34.80L4.80-34.80Q4.80-34.80 4.80-34.80Q4.80-34.80 4.80-34.80Q4.80-34.80 4.80-34.80Q4.80-34.80 4.80-34.80Q4.80-34.80 4.80-34.80M5.10-40L5.20-39.90L5.20-34.80Q5.20-34.80 5.20-34.80Q5.20-34.80 5.20-34.80Q5.20-34.80 5.20-34.80Q5.20-34.80 5.20-34.80Q5.20-34.80 5.20-34.80L0.10-34.80L0-34.90L0-35Q0-35.90 0.25-36.65Q0.50-37.40 0.95-38Q1.40-38.60 2-39.05Q2.60-39.50 3.35-39.75Q4.10-40 5-40L5.10-40M5.20-45.20L5.20-40.10L5.10-40L5-40Q4.10-40 3.35-40.25Q2.60-40.50 2-40.95Q1.40-41.40 0.95-42Q0.50-42.60 0.25-43.35Q0-44.10 0-45L0-45.10L0.10-45.20L5.20-45.20Q5.20-45.20 5.20-45.20Q5.20-45.20 5.20-45.20Q5.20-45.20 5.20-45.20Q5.20-45.20 5.20-45.20Q5.20-45.20 5.20-45.20M4.90-40L4.80-40.10L4.80-45.20Q4.80-45.20 4.80-45.20Q4.80-45.20 4.80-45.20Q4.80-45.20 4.80-45.20Q4.80-45.20 4.80-45.20Q4.80-45.20 4.80-45.20L9.90-45.20L10-45.10L10-45Q10-44.10 9.75-43.35Q9.50-42.60 9.05-42Q8.60-41.40 8-40.95Q7.40-40.50 6.65-40.25Q5.90-40 5-40L4.90-40M4.80-44.80L4.80-49.90L4.90-50L5-50Q5.90-50 6.65-49.75Q7.40-49.50 8-49.05Q8.60-48.60 9.05-48Q9.50-47.40 9.75-46.65Q10-45.90 10-45L10-44.90L9.90-44.80L4.80-44.80Q4.80-44.80 4.80-44.80Q4.80-44.80 4.80-44.80Q4.80-44.80 4.80-44.80Q4.80-44.80 4.80-44.80M5.10-50L5.20-49.90L5.20-44.80Q5.20-44.80 5.20-44.80Q5.20-44.80 5.20-44.80Q5.20-44.80 5.20-44.80Q5.20-44.80 5.20-44.80Q5.20-44.80 5.20-44.80L0.10-44.80L0-44.90L0-45Q0-45.90 0.25-46.65Q0.50-47.40 0.95-48Q1.40-48.60 2-49.05Q2.60-49.50 3.35-49.75Q4.10-50 5-50L5.10-50M15.20-35.20L15.20-30.10L15.10-30L15-30Q14.10-30 13.35-30.25Q12.60-30.50 12-30.95Q11.40-31.40 10.95-32Q10.50-32.60 10.25-33.35Q10-34.10 10-35L10-35.10L10.10-35.20L15.20-35.20Q15.20-35.20 15.20-35.20Q15.20-35.20 15.20-35.20Q15.20-35.20 15.20-35.20Q15.20-35.20 15.20-35.20Q15.20-35.20 15.20-35.20M14.90-30L14.80-30.10L14.80-35.20Q14.80-35.20 14.80-35.20Q14.80-35.20 14.80-35.20Q14.80-35.20 14.80-35.20Q14.80-35.20 14.80-35.20Q14.80-35.20 14.80-35.20L19.90-35.20L20-35.10L20-35Q20-34.10 19.75-33.35Q19.50-32.60 19.05-32Q18.60-31.40 18-30.95Q17.40-30.50 16.65-30.25Q15.90-30 15-30L14.90-30M14.80-34.80L14.80-39.90L14.90-40L15-40Q15.90-40 16.65-39.75Q17.40-39.50 18-39.05Q18.60-38.60 19.05-38Q19.50-37.40 19.75-36.65Q20-35.90 20-35L20-34.90L19.90-34.80L14.80-34.80Q14.80-34.80 14.80-34.80Q14.80-34.80 14.80-34.80Q14.80-34.80 14.80-34.80Q14.80-34.80 14.80-34.80Q14.80-34.80 14.80-34.80M15.10-40L15.20-39.90L15.20-34.80Q15.20-34.80 15.20-34.80Q15.20-34.80 15.20-34.80Q15.20-34.80 15.20-34.80Q15.20-34.80 15.20-34.80Q15.20-34.80 15.20-34.80L10.10-34.80L10-34.90L10-35Q10-35.90 10.25-36.65Q10.50-37.40 10.95-38Q11.40-38.60 12-39.05Q12.60-39.50 13.35-39.75Q14.10-40 15-40L15.10-40M25.20-45.20L25.20-40.10L25.10-40L25-40Q24.10-40 23.35-40.25Q22.60-40.50 22-40.95Q21.40-41.40 20.95-42Q20.50-42.60 20.25-43.35Q20-44.10 20-45L20-45.10L20.10-45.20L25.20-45.20Q25.20-45.20 25.20-45.20Q25.20-45.20 25.20-45.20Q25.20-45.20 25.20-45.20Q25.20-45.20 25.20-45.20Q25.20-45.20 25.20-45.20M24.90-40L24.80-40.10L24.80-45.20Q24.80-45.20 24.80-45.20Q24.80-45.20 24.80-45.20Q24.80-45.20 24.80-45.20Q24.80-45.20 24.80-45.20Q24.80-45.20 24.80-45.20L29.90-45.20L30-45.10L30-45Q30-44.10 29.75-43.35Q29.50-42.60 29.05-42Q28.60-41.40 28-40.95Q27.40-40.50 26.65-40.25Q25.90-40 25-40L24.90-40M24.80-44.80L24.80-49.90L24.90-50L25-50Q25.90-50 26.65-49.75Q27.40-49.50 28-49.05Q28.60-48.60 29.05-48Q29.50-47.40 29.75-46.65Q30-45.90 30-45L30-44.90L29.90-44.80L24.80-44.80Q24.80-44.80 24.80-44.80Q24.80-44.80 24.80-44.80Q24.80-44.80 24.80-44.80Q24.80-44.80 24.80-44.80Q24.80-44.80 24.80-44.80M25.10-50L25.20-49.90L25.20-44.80Q25.20-44.80 25.20-44.80Q25.20-44.80 25.20-44.80Q25.20-44.80 25.20-44.80Q25.20-44.80 25.20-44.80Q25.20-44.80 25.20-44.80L20.10-44.80L20-44.90L20-45Q20-45.90 20.25-46.65Q20.50-47.40 20.95-48Q21.40-48.60 22-49.05Q22.60-49.50 23.35-49.75Q24.10-50 25-50L25.10-50M45.20-5.20L45.20-0.10L45.10 0L45 0Q44.10 0 43.35-0.25Q42.60-0.50 42-0.95Q41.40-1.40 40.95-2Q40.50-2.60 40.25-3.35Q40-4.10 40-5L40-5.10L40.10-5.20L45.20-5.20Q45.20-5.20 45.20-5.20Q45.20-5.20 45.20-5.20Q45.20-5.20 45.20-5.20Q45.20-5.20 45.20-5.20Q45.20-5.20 45.20-5.20M44.90 0L44.80-0.10L44.80-5.20Q44.80-5.20 44.80-5.20Q44.80-5.20 44.80-5.20Q44.80-5.20 44.80-5.20Q44.80-5.20 44.80-5.20Q44.80-5.20 44.80-5.20L49.90-5.20L50-5.10L50-5Q50-4.10 49.75-3.35Q49.50-2.60 49.05-2Q48.60-1.40 48-0.95Q47.40-0.50 46.65-0.25Q45.90 0 45 0L44.90 0M44.80-4.80L44.80-9.90L44.90-10L45-10Q45.90-10 46.65-9.75Q47.40-9.50 48-9.05Q48.60-8.60 49.05-8Q49.50-7.40 49.75-6.65Q50-5.90 50-5L50-4.90L49.90-4.80L44.80-4.80Q44.80-4.80 44.80-4.80Q44.80-4.80 44.80-4.80Q44.80-4.80 44.80-4.80Q44.80-4.80 44.80-4.80Q44.80-4.80 44.80-4.80M45.10-10L45.20-9.90L45.20-4.80Q45.20-4.80 45.20-4.80Q45.20-4.80 45.20-4.80Q45.20-4.80 45.20-4.80Q45.20-4.80 45.20-4.80Q45.20-4.80 45.20-4.80L40.10-4.80L40-4.90L40-5Q40-5.90 40.25-6.65Q40.50-7.40 40.95-8Q41.40-8.60 42-9.05Q42.60-9.50 43.35-9.75Q44.10-10 45-10L45.10-10M45.20-15.20L45.20-10.10L45.10-10L45-10Q44.10-10 43.35-10.25Q42.60-10.50 42-10.95Q41.40-11.40 40.95-12Q40.50-12.60 40.25-13.35Q40-14.10 40-15L40-15.10L40.10-15.20L45.20-15.20Q45.20-15.20 45.20-15.20Q45.20-15.20 45.20-15.20Q45.20-15.20 45.20-15.20Q45.20-15.20 45.20-15.20Q45.20-15.20 45.20-15.20M44.90-10L44.80-10.10L44.80-15.20Q44.80-15.20 44.80-15.20Q44.80-15.20 44.80-15.20Q44.80-15.20 44.80-15.20Q44.80-15.20 44.80-15.20Q44.80-15.20 44.80-15.20L49.90-15.20L50-15.10L50-15Q50-14.10 49.75-13.35Q49.50-12.60 49.05-12Q48.60-11.40 48-10.95Q47.40-10.50 46.65-10.25Q45.90-10 45-10L44.90-10M44.80-14.80L44.80-19.90L44.90-20L45-20Q45.90-20 46.65-19.75Q47.40-19.50 48-19.05Q48.60-18.60 49.05-18Q49.50-17.40 49.75-16.65Q50-15.90 50-15L50-14.90L49.90-14.80L44.80-14.80Q44.80-14.80 44.80-14.80Q44.80-14.80 44.80-14.80Q44.80-14.80 44.80-14.80Q44.80-14.80 44.80-14.80Q44.80-14.80 44.80-14.80M45.10-20L45.20-19.90L45.20-14.80Q45.20-14.80 45.20-14.80Q45.20-14.80 45.20-14.80Q45.20-14.80 45.20-14.80Q45.20-14.80 45.20-14.80Q45.20-14.80 45.20-14.80L40.10-14.80L40-14.90L40-15Q40-15.90 40.25-16.65Q40.50-17.40 40.95-18Q41.40-18.60 42-19.05Q42.60-19.50 43.35-19.75Q44.10-20 45-20L45.10-20M45.20-25.20L45.20-20.10L45.10-20L45-20Q44.10-20 43.35-20.25Q42.60-20.50 42-20.95Q41.40-21.40 40.95-22Q40.50-22.60 40.25-23.35Q40-24.10 40-25L40-25.10L40.10-25.20L45.20-25.20Q45.20-25.20 45.20-25.20Q45.20-25.20 45.20-25.20Q45.20-25.20 45.20-25.20Q45.20-25.20 45.20-25.20Q45.20-25.20 45.20-25.20M44.90-20L44.80-20.10L44.80-25.20Q44.80-25.20 44.80-25.20Q44.80-25.20 44.80-25.20Q44.80-25.20 44.80-25.20Q44.80-25.20 44.80-25.20Q44.80-25.20 44.80-25.20L49.90-25.20L50-25.10L50-25Q50-24.10 49.75-23.35Q49.50-22.60 49.05-22Q48.60-21.40 48-20.95Q47.40-20.50 46.65-20.25Q45.90-20 45-20L44.90-20M44.80-24.80L44.80-29.90L44.90-30L45-30Q45.90-30 46.65-29.75Q47.40-29.50 48-29.05Q48.60-28.60 49.05-28Q49.50-27.40 49.75-26.65Q50-25.90 50-25L50-24.90L49.90-24.80L44.80-24.80Q44.80-24.80 44.80-24.80Q44.80-24.80 44.80-24.80Q44.80-24.80 44.80-24.80Q44.80-24.80 44.80-24.80Q44.80-24.80 44.80-24.80M45.10-30L45.20-29.90L45.20-24.80Q45.20-24.80 45.20-24.80Q45.20-24.80 45.20-24.80Q45.20-24.80 45.20-24.80Q45.20-24.80 45.20-24.80Q45.20-24.80 45.20-24.80L40.10-24.80L40-24.90L40-25Q40-25.90 40.25-26.65Q40.50-27.40 40.95-28Q41.40-28.60 42-29.05Q42.60-29.50 43.35-29.75Q44.10-30 45-30L45.10-30M45.20-35.20L45.20-30.10L45.10-30L45-30Q44.10-30 43.35-30.25Q42.60-30.50 42-30.95Q41.40-31.40 40.95-32Q40.50-32.60 40.25-33.35Q40-34.10 40-35L40-35.10L40.10-35.20L45.20-35.20Q45.20-35.20 45.20-35.20Q45.20-35.20 45.20-35.20Q45.20-35.20 45.20-35.20Q45.20-35.20 45.20-35.20Q45.20-35.20 45.20-35.20M44.90-30L44.80-30.10L44.80-35.20Q44.80-35.20 44.80-35.20Q44.80-35.20 44.80-35.20Q44.80-35.20 44.80-35.20Q44.80-35.20 44.80-35.20Q44.80-35.20 44.80-35.20L49.90-35.20L50-35.10L50-35Q50-34.10 49.75-33.35Q49.50-32.60 49.05-32Q48.60-31.40 48-30.95Q47.40-30.50 46.65-30.25Q45.90-30 45-30L44.90-30M44.80-34.80L44.80-39.90L44.90-40L45-40Q45.90-40 46.65-39.75Q47.40-39.50 48-39.05Q48.60-38.60 49.05-38Q49.50-37.40 49.75-36.65Q50-35.90 50-35L50-34.90L49.90-34.80L44.80-34.80Q44.80-34.80 44.80-34.80Q44.80-34.80 44.80-34.80Q44.80-34.80 44.80-34.80Q44.80-34.80 44.80-34.80Q44.80-34.80 44.80-34.80M45.10-40L45.20-39.90L45.20-34.80Q45.20-34.80 45.20-34.80Q45.20-34.80 45.20-34.80Q45.20-34.80 45.20-34.80Q45.20-34.80 45.20-34.80Q45.20-34.80 45.20-34.80L40.10-34.80L40-34.90L40-35Q40-35.90 40.25-36.65Q40.50-37.40 40.95-38Q41.40-38.60 42-39.05Q42.60-39.50 43.35-39.75Q44.10-40 45-40L45.10-40M45.20-45.20L45.20-40.10L45.10-40L45-40Q44.10-40 43.35-40.25Q42.60-40.50 42-40.95Q41.40-41.40 40.95-42Q40.50-42.60 40.25-43.35Q40-44.10 40-45L40-45.10L40.10-45.20L45.20-45.20Q45.20-45.20 45.20-45.20Q45.20-45.20 45.20-45.20Q45.20-45.20 45.20-45.20Q45.20-45.20 45.20-45.20Q45.20-45.20 45.20-45.20M44.90-40L44.80-40.10L44.80-45.20Q44.80-45.20 44.80-45.20Q44.80-45.20 44.80-45.20Q44.80-45.20 44.80-45.20Q44.80-45.20 44.80-45.20Q44.80-45.20 44.80-45.20L49.90-45.20L50-45.10L50-45Q50-44.10 49.75-43.35Q49.50-42.60 49.05-42Q48.60-41.40 48-40.95Q47.40-40.50 46.65-40.25Q45.90-40 45-40L44.90-40M44.80-44.80L44.80-49.90L44.90-50L45-50Q45.90-50 46.65-49.75Q47.40-49.50 48-49.05Q48.60-48.60 49.05-48Q49.50-47.40 49.75-46.65Q50-45.90 50-45L50-44.90L49.90-44.80L44.80-44.80Q44.80-44.80 44.80-44.80Q44.80-44.80 44.80-44.80Q44.80-44.80 44.80-44.80Q44.80-44.80 44.80-44.80Q44.80-44.80 44.80-44.80M45.10-50L45.20-49.90L45.20-44.80Q45.20-44.80 45.20-44.80Q45.20-44.80 45.20-44.80Q45.20-44.80 45.20-44.80Q45.20-44.80 45.20-44.80Q45.20-44.80 45.20-44.80L40.10-44.80L40-44.90L40-45Q40-45.90 40.25-46.65Q40.50-47.40 40.95-48Q41.40-48.60 42-49.05Q42.60-49.50 43.35-49.75Q44.10-50 45-50L45.10-50M55.20-35.20L55.20-30.10L55.10-30L55-30Q54.10-30 53.35-30.25Q52.60-30.50 52-30.95Q51.40-31.40 50.95-32Q50.50-32.60 50.25-33.35Q50-34.10 50-35L50-35.10L50.10-35.20L55.20-35.20Q55.20-35.20 55.20-35.20Q55.20-35.20 55.20-35.20Q55.20-35.20 55.20-35.20Q55.20-35.20 55.20-35.20Q55.20-35.20 55.20-35.20M54.90-30L54.80-30.10L54.80-35.20Q54.80-35.20 54.80-35.20Q54.80-35.20 54.80-35.20Q54.80-35.20 54.80-35.20Q54.80-35.20 54.80-35.20Q54.80-35.20 54.80-35.20L59.90-35.20L60-35.10L60-35Q60-34.10 59.75-33.35Q59.50-32.60 59.05-32Q58.60-31.40 58-30.95Q57.40-30.50 56.65-30.25Q55.90-30 55-30L54.90-30M54.80-34.80L54.80-39.90L54.90-40L55-40Q55.90-40 56.65-39.75Q57.40-39.50 58-39.05Q58.60-38.60 59.05-38Q59.50-37.40 59.75-36.65Q60-35.90 60-35L60-34.90L59.90-34.80L54.80-34.80Q54.80-34.80 54.80-34.80Q54.80-34.80 54.80-34.80Q54.80-34.80 54.80-34.80Q54.80-34.80 54.80-34.80Q54.80-34.80 54.80-34.80M55.10-40L55.20-39.90L55.20-34.80Q55.20-34.80 55.20-34.80Q55.20-34.80 55.20-34.80Q55.20-34.80 55.20-34.80Q55.20-34.80 55.20-34.80Q55.20-34.80 55.20-34.80L50.10-34.80L50-34.90L50-35Q50-35.90 50.25-36.65Q50.50-37.40 50.95-38Q51.40-38.60 52-39.05Q52.60-39.50 53.35-39.75Q54.10-40 55-40L55.10-40M65.20-45.20L65.20-40.10L65.10-40L65-40Q64.10-40 63.35-40.25Q62.60-40.50 62-40.95Q61.40-41.40 60.95-42Q60.50-42.60 60.25-43.35Q60-44.10 60-45L60-45.10L60.10-45.20L65.20-45.20Q65.20-45.20 65.20-45.20Q65.20-45.20 65.20-45.20Q65.20-45.20 65.20-45.20Q65.20-45.20 65.20-45.20Q65.20-45.20 65.20-45.20M64.90-40L64.80-40.10L64.80-45.20Q64.80-45.20 64.80-45.20Q64.80-45.20 64.80-45.20Q64.80-45.20 64.80-45.20Q64.80-45.20 64.80-45.20Q64.80-45.20 64.80-45.20L69.90-45.20L70-45.10L70-45Q70-44.10 69.75-43.35Q69.50-42.60 69.05-42Q68.60-41.40 68-40.95Q67.40-40.50 66.65-40.25Q65.90-40 65-40L64.90-40M64.80-44.80L64.80-49.90L64.90-50L65-50Q65.90-50 66.65-49.75Q67.40-49.50 68-49.05Q68.60-48.60 69.05-48Q69.50-47.40 69.75-46.65Q70-45.90 70-45L70-44.90L69.90-44.80L64.80-44.80Q64.80-44.80 64.80-44.80Q64.80-44.80 64.80-44.80Q64.80-44.80 64.80-44.80Q64.80-44.80 64.80-44.80Q64.80-44.80 64.80-44.80M65.10-50L65.20-49.90L65.20-44.80Q65.20-44.80 65.20-44.80Q65.20-44.80 65.20-44.80Q65.20-44.80 65.20-44.80Q65.20-44.80 65.20-44.80Q65.20-44.80 65.20-44.80L60.10-44.80L60-44.90L60-45Q60-45.90 60.25-46.65Q60.50-47.40 60.95-48Q61.40-48.60 62-49.05Q62.60-49.50 63.35-49.75Q64.10-50 65-50"/></g></svg>
